<svg width="124" height="31" viewBox="0 0 124 31" fill="none" xmlns="http://www.w3.org/2000/svg">
<path d="M72 6.90002C71.8 7.20002 71.6 7.40002 71.4 7.60002C71.2 7.70002 71 7.80003 70.6 7.80003C70.3 7.80003 70 7.70002 69.6 7.50002C69.3 7.30002 68.9 7.10003 68.4 6.80003C67.9 6.60003 67.4 6.30002 66.8 6.10002C66.2 5.90002 65.5 5.80003 64.7 5.80003C63.3 5.80003 62.3 6.10002 61.6 6.70002C60.9 7.30002 60.6 8.10002 60.6 9.10002C60.6 9.70002 60.8 10.3 61.2 10.7C61.6 11.1 62.1 11.5 62.7 11.8C63.3 12.1 64 12.4 64.8 12.6C65.6 12.8 66.4 13.1 67.2 13.4C68 13.7 68.8 14 69.6 14.4C70.4 14.8 71.1 15.3 71.7 15.9C72.3 16.5 72.8 17.2 73.2 18.1C73.6 19 73.8 20 73.8 21.2C73.8 22.5 73.6 23.8 73.1 24.9C72.6 26.1 72 27.1 71.1 27.9C70.2 28.8 69.2 29.4 67.9 29.9C66.6 30.4 65.2 30.6 63.6 30.6C62.7 30.6 61.8 30.5 60.8 30.3C59.9 30.1 59 29.9 58.2 29.5C57.4 29.2 56.6 28.8 55.8 28.3C55.1 27.8 54.4 27.3 53.8 26.7L55.6 23.9C55.7 23.7 55.9 23.5 56.2 23.4C56.4 23.3 56.7 23.2 57 23.2C57.4 23.2 57.7 23.3 58.1 23.6C58.5 23.9 59 24.2 59.5 24.5C60 24.8 60.6 25.1 61.3 25.4C62 25.7 62.8 25.8 63.8 25.8C65.2 25.8 66.3 25.5 67.1 24.8C67.9 24.2 68.3 23.2 68.3 21.9C68.3 21.2 68.1 20.6 67.7 20.1C67.3 19.6 66.8 19.3 66.2 19C65.6 18.7 64.9 18.4 64.1 18.2C63.3 18 62.5 17.7 61.7 17.5C60.9 17.2 60.1 16.9 59.3 16.5C58.5 16.1 57.8 15.6 57.2 15C56.6 14.4 56.1 13.6 55.7 12.7C55.3 11.8 55.1 10.7 55.1 9.30003C55.1 8.20003 55.3 7.20002 55.7 6.20002C56.1 5.20002 56.8 4.30002 57.6 3.50002C58.4 2.70002 59.4 2.10002 60.7 1.60002C61.9 1.10002 63.3 0.900024 64.9 0.900024C66.6 0.900024 68.3 1.20002 69.8 1.70002C71.3 2.20002 72.5 3.00002 73.6 4.00002L72 6.90002Z" fill="#50C3A5"/>
<path d="M98.9 23.2C99.2 23.2 99.5 23.3 99.7 23.6L102.1 26.1C100.9 27.6 99.5 28.7 97.7 29.5C96 30.3 93.9 30.7 91.5 30.7C89.3 30.7 87.4 30.3 85.6 29.6C83.8 28.9 82.4 27.8 81.2 26.5C80 25.2 79 23.6 78.4 21.8C77.7 20 77.4 18 77.4 15.9C77.4 14.5 77.6 13.1 77.9 11.8C78.2 10.5 78.7 9.3 79.3 8.2C79.9 7.1 80.6 6.1 81.5 5.2C82.3 4.3 83.3 3.6 84.4 2.9C85.5 2.3 86.6 1.8 87.9 1.5C89.2 1.2 90.5 1 91.9 1C93 1 94 1.1 94.9 1.3C95.9 1.5 96.7 1.7 97.6 2.1C98.4 2.4 99.2 2.8 99.9 3.3C100.6 3.8 101.2 4.3 101.8 4.9L99.8 7.7C99.7 7.9 99.5 8 99.3 8.2C99.1 8.3 98.9 8.4 98.5 8.4C98.2 8.4 97.9 8.3 97.5 8.1C97.2 7.9 96.8 7.6 96.3 7.3C95.8 7 95.2 6.8 94.5 6.5C93.8 6.3 92.9 6.2 91.8 6.2C90.6 6.2 89.5 6.4 88.5 6.9C87.5 7.3 86.6 8 85.9 8.8C85.2 9.6 84.6 10.7 84.2 11.9C83.8 13.1 83.6 14.5 83.6 16C83.6 17.6 83.8 19 84.3 20.2C84.7 21.4 85.3 22.5 86.1 23.3C86.9 24.1 87.7 24.8 88.7 25.2C89.7 25.6 90.8 25.9 91.9 25.9C92.6 25.9 93.2 25.9 93.8 25.8C94.4 25.7 94.9 25.6 95.3 25.5C95.8 25.3 96.2 25.1 96.6 24.9C97 24.6 97.4 24.3 97.9 23.9C98 23.8 98.2 23.7 98.4 23.6C98.6 23.2 98.7 23.2 98.9 23.2Z" fill="#0F5FE1"/>
<path d="M122.1 6.90002C121.9 7.20002 121.7 7.40002 121.5 7.60002C121.3 7.70002 121.1 7.80003 120.7 7.80003C120.4 7.80003 120.1 7.70002 119.7 7.50002C119.4 7.30002 119 7.10003 118.5 6.80003C118 6.60003 117.5 6.30002 116.9 6.10002C116.3 5.90002 115.6 5.80003 114.8 5.80003C113.4 5.80003 112.4 6.10002 111.7 6.70002C111 7.30002 110.7 8.10002 110.7 9.10002C110.7 9.70002 110.9 10.3 111.3 10.7C111.7 11.1 112.2 11.5 112.8 11.8C113.4 12.1 114.1 12.4 114.9 12.6C115.7 12.8 116.5 13.1 117.3 13.4C118.1 13.7 118.9 14 119.7 14.4C120.5 14.8 121.2 15.3 121.8 15.9C122.4 16.5 122.9 17.2 123.3 18.1C123.7 19 123.9 20 123.9 21.2C123.9 22.5 123.7 23.8 123.2 24.9C122.7 26.1 122.1 27.1 121.2 27.9C120.3 28.8 119.3 29.4 118 29.9C116.7 30.4 115.3 30.6 113.7 30.6C112.8 30.6 111.9 30.5 110.9 30.3C110 30.1 109.1 29.9 108.3 29.5C107.5 29.2 106.7 28.8 105.9 28.3C105.2 27.8 104.5 27.3 103.9 26.7L105.7 23.9C105.8 23.7 106 23.5 106.3 23.4C106.5 23.3 106.8 23.2 107.1 23.2C107.5 23.2 107.8 23.3 108.2 23.6C108.6 23.9 109.1 24.2 109.6 24.5C110.1 24.8 110.7 25.1 111.4 25.4C112.1 25.7 112.9 25.8 113.9 25.8C115.3 25.8 116.4 25.5 117.2 24.8C118 24.2 118.4 23.2 118.4 21.9C118.4 21.2 118.2 20.6 117.8 20.1C117.4 19.6 116.9 19.3 116.3 19C115.7 18.7 115 18.4 114.2 18.2C113.4 18 112.6 17.7 111.8 17.5C111 17.2 110.2 16.9 109.4 16.5C108.6 16.1 107.9 15.6 107.3 15C106.7 14.4 106.2 13.6 105.8 12.7C105.4 11.8 105.2 10.7 105.2 9.30003C105.2 8.20003 105.4 7.20002 105.8 6.20002C106.2 5.20002 106.9 4.30002 107.7 3.50002C108.5 2.70002 109.5 2.10002 110.8 1.60002C112 1.10002 113.4 0.900024 115 0.900024C116.7 0.900024 118.4 1.20002 119.9 1.70002C121.4 2.20002 122.6 3.00002 123.7 4.00002L122.1 6.90002Z" fill="#0F5FE1"/>
<path d="M47.6 12C47 11.4 46.2 11 45.3 11H42.3H37H18.4C18 11 17.6 11 17.3 11.1C16.7 11.2 16.1 11.4 15.6 11.6C15.1 11.9 14.7 12.2 14.3 12.5L12 14.8L11.5 15.3H12.1H42.4L31.5 26.2L31.2 26.4C31.1 26.4 31 26.5 30.6 26.5H6.30001L10.3 22.5L10.8 22H10.2H5.00001H4.90001L4.80001 22.1L1.50001 25.4C0.900008 26 0.600006 26.8 0.600006 27.6C0.600006 28.4 0.900008 29.2 1.50001 29.8C2.10001 30.4 2.90001 30.8 3.80001 30.8H31C31.7 30.8 32.4 30.7 33 30.4C33.6 30.2 34.1 29.9 34.6 29.5L34.7 29.4L47.7 16.4C48.3 15.8 48.6 15 48.6 14.2C48.4 13.3 48.1 12.6 47.6 12Z" fill="#50C3A5"/>
<path d="M47.6 2C47 1.4 46.2 1 45.3 1H18.4C18 1 17.6 0.999998 17.3 1.1C16.7 1.2 16.1 1.4 15.6 1.6C15.1 1.9 14.7 2.2 14.3 2.6L1.50001 15.4C0.900008 16 0.600006 16.8 0.600006 17.6C0.600006 18.4 0.900008 19.2 1.50001 19.8C2.10001 20.4 2.90001 20.8 3.80001 20.8H31C31.7 20.8 32.4 20.7 33 20.4C33.6 20.2 34.1 19.9 34.6 19.5L34.7 19.4L37.2 16.9L37.7 16.4H37.1H6.80001L17.6 5.6L18 5.3L18.2 5.2C18.2 5.2 18.4 5.2 18.8 5.2H43L39 9.2L38.5 9.7H39.1H44H44.1L44.2 9.6L47.5 6.3C48.1 5.7 48.4 4.9 48.4 4.1C48.4 3.4 48.1 2.6 47.6 2Z" fill="#0F5FE1"/>
</svg>
